PathFileType	4	(X/Y/Z)	Patient4_TMGait_0pt7_02_left_11.trc.trc
DataRate	CameraRate	NumFrames	NumMarkers	Units	OrigDataRate	OrigDataStartFrame	OrigNumFrames
85.889570552147	85.889570552147	5	33	mm	85.889570552147	36	       141
Frame#	Time	Sacral			L.Shoulder			Chest			R.Shoulder			Neck			R.ASIS			L.ASIS			R.Thigh.Superior			R.Thigh.Lateral			R.Thigh.Inferior			R.Patella			L.Thigh.Superior			L.Thigh.Lateral			L.Thigh.Inferior			L.Patella			L.Shank.Superior			L.Shank.Lateral			L.Shank.Inferior			R.Shank.Superior			R.Shank.Lateral			R.Shank.Inferior			R.Heel			R.Midfoot.Superior			R.Midfoot.Lateral			R.Toe			L.Heel			L.Midfoot.Lateral			L.Midfoot.Superior			L.Toe			L.Elbow			L.Wrist			R.Elbow			R.Wrist			
		X1	Y1	Z1	X2	Y2	Z2	X3	Y3	Z3	X4	Y4	Z4	X5	Y5	Z5	X6	Y6	Z6	X7	Y7	Z7	X8	Y8	Z8	X9	Y9	Z9	X10	Y10	Z10	X11	Y11	Z11	X12	Y12	Z12	X13	Y13	Z13	X14	Y14	Z14	X15	Y15	Z15	X16	Y16	Z16	X17	Y17	Z17	X18	Y18	Z18	X19	Y19	Z19	X20	Y20	Z20	X21	Y21	Z21	X22	Y22	Z22	X23	Y23	Z23	X24	Y24	Z24	X25	Y25	Z25	X26	Y26	Z26	X27	Y27	Z27	X28	Y28	Z28	X29	Y29	Z29	X30	Y30	Z30	X31	Y31	Z31	X32	Y32	Z32	X33	Y33	Z33	

36	12.627500000000	761.741218694339	992.756618093616	483.266039495428	912.331862571344	1419.761815364303	289.105418505876	1036.392950468337	1353.427402418460	437.197865519421	972.551371062376	1431.235751533990	617.867972503470	933.542783148634	1481.424178583740	441.930666573084	992.351292096652	929.341093011560	585.798133200172	967.639958528764	948.781887879319	312.550951843035	1006.306077965415	717.136575800538	565.629582174847	911.885107601730	615.839057357314	628.721368148292	983.893906259244	550.567352201579	554.230242464072	965.922434078731	445.985917661680	570.536388476189	1050.168933396932	766.002537500045	344.462352125741	988.302329317435	635.194580686068	279.955320509418	1090.092956241214	574.767820142487	339.490030215744	1105.526086797190	503.574979423159	345.827188700435	1084.488682322409	427.030138953047	338.187218309371	1005.169914389543	305.439806275780	285.945351690450	1069.052220100338	198.484481609229	354.222072856339	893.232626526545	377.618007028680	576.038718453522	777.960389146290	324.414778418190	636.951943525693	772.408515284298	216.640790196748	581.816669933623	578.115008508236	113.515327762775	553.678534876849	755.796494084916	107.581129589377	593.380545433572	652.364307086978	76.259010619626	628.008284914677	849.556062643550	35.229926412736	620.559945792143	953.458066508727	38.366914292415	395.116202433776	1026.957328648531	35.861553152997	313.458234511659	1108.753167059458	98.234470274201	339.847162824094	1237.706406063883	48.930935980677	311.059221896336	773.044715912671	1095.831167094052	199.274804925414	735.601057286592	838.264826682417	195.214222532740	1093.920556758429	1109.663025846135	732.177948393737	1309.691196187181	1184.878378195436	629.738438109782	
37	12.639142857143	761.387618247625	994.127405459014	480.755651999896	912.834276190024	1420.742742646537	286.505059946134	1036.626538968803	1354.618117073801	434.899899692220	972.540179823362	1432.814846162282	615.333870364579	933.819052795896	1482.619773762556	439.139101552708	991.757730952416	930.359719091532	583.404018626819	967.531814813877	950.211690316902	310.392274465396	1010.077731718621	719.177989823758	564.087919692520	918.254963740049	616.241921053531	627.588918347509	992.463535252278	551.935856198672	553.646596022864	975.725954719148	445.925232627441	571.297549392247	1048.923571879039	765.596318810478	341.403146255070	984.740439689004	635.159152259257	278.495665647215	1086.025591715017	573.857272936487	337.871669726725	1100.717086104653	502.907154139397	344.911175099669	1079.185641784168	426.506797428014	337.314739141262	998.993124018209	305.399485183731	285.532571618013	1061.924988724185	198.177494977489	354.031577213968	900.891670867091	378.640488106701	576.398515627518	783.254039484479	329.873026217768	636.558094853543	774.794673910108	221.732577872546	582.398804320594	577.349287407734	127.608362353532	553.296690479104	753.851778267329	110.694918144664	594.013732946477	648.641638052222	85.532952691964	627.682005813119	841.716577985309	34.252368966289	620.630286465025	945.362214429052	38.289702012166	395.031410121640	1018.831096616829	35.841526758271	313.349308787966	1100.566299305155	98.238879796617	339.781336303256	1229.543688127305	49.155816761801	310.860221660398	779.998204425627	1093.103869716544	196.195390286440	751.791742986647	834.295156389893	191.456470282678	1086.209279039031	1108.848122230722	732.073851632874	1303.979154138606	1177.881261876223	629.700433139808	
38	12.650785714286	760.820141172363	995.501654492241	478.286596571159	913.448144201851	1421.740594093403	283.963524730946	1036.807985909604	1355.783763913183	432.758516371910	972.321845360886	1434.339936680494	612.915941987399	933.997098648999	1483.796553347547	436.420737556307	990.955051786901	931.372570243976	581.214723712111	967.281613533439	951.581529729508	308.428510384301	1014.128802695874	721.545501993978	562.688232289176	925.185968167399	616.870126918394	626.631345438699	1001.576912589155	553.722359152435	553.102168350685	986.206641038200	446.373608481083	571.860429187076	1047.233300610013	764.958704585400	338.717103296706	980.948949100851	635.140413064758	277.127486861131	1081.504766577579	572.900007584816	336.636240418477	1095.393631878130	502.162477923274	344.197719711964	1073.418762376720	425.960864504897	336.556747732300	992.488129904891	305.267279816157	285.214779840343	1054.599525645745	197.854924585990	353.908423581587	909.385942749407	380.039271428414	576.611338653005	789.610891294710	335.681114690164	636.084430741324	778.211153081218	227.343120499370	582.852857087806	578.165395356608	142.849919355789	552.623264422855	752.642362272971	114.376212516511	594.540408942123	645.905262654743	95.942417798251	627.145730702941	833.995094644846	33.070143467750	620.816414069299	937.207068013862	38.197175925325	394.996797216195	1010.645120416165	35.787588246587	313.293183725078	1092.350067038651	98.172335318758	339.773895960793	1221.342407953460	49.244929232056	310.724556395924	787.282259057309	1090.560782386653	192.994620542883	768.945528987717	830.768152238249	187.556231891647	1077.755885451101	1107.994798689446	731.960915114431	1297.921794705971	1169.510063342990	629.961664749933	
39	12.662428571429	760.036394059877	996.834387797564	475.896084467804	914.167752096843	1422.714706631858	281.500273740808	1036.935249516097	1356.871699618458	430.790143518221	971.909472135941	1435.775687635008	610.631535583582	934.093681694639	1484.926558732210	433.796988303936	989.951946308647	932.354884885106	579.241941225903	966.865346350861	952.857752205122	306.644364299785	1018.366801479790	724.254268286412	561.370585675145	932.596887122256	617.778001136802	625.803754729574	1011.082200103286	555.980972999342	552.513717110709	997.247310522734	447.377943345463	572.137288330739	1045.147295954674	764.182630487972	336.460945047894	977.063736996062	635.187562105822	275.829241440138	1076.660601300792	571.957334017550	335.752298794735	1089.691897503479	501.382753236082	343.658103721718	1067.323041159750	425.412467301994	335.915964167682	985.792537568038	305.078619267695	284.921694481512	1047.139643956897	197.528924643851	353.842162251127	918.598140272861	381.854800155586	576.607928668120	796.945246659963	341.782076022602	635.485926579731	782.635221994380	233.416634143844	583.121772289352	580.640290844856	158.961695534973	551.643018839625	752.227887044305	118.624369614178	594.919209940760	644.287789986243	107.326234800501	626.377930229941	826.560987178013	31.752809348502	621.105377198513	929.004251030760	38.101696285380	394.988114285090	1002.415597117454	35.712734562522	313.269442838155	1084.120940648275	98.051983051231	339.808609746896	1213.117774633605	49.215997170338	310.644144929525	794.912153193565	1088.188706178135	189.680735623164	786.988841753067	827.737894296640	183.542465459816	1068.624330542394	1107.087709524458	731.803271665194	1291.468225005518	1159.751163722815	630.552443129163	
40	12.674071428571	759.043603220876	998.097354377152	473.607437345806	914.971905417649	1423.638821272705	279.136762126906	1037.002198017785	1357.847455403012	429.007069197834	971.316876366457	1437.100660436419	608.496020699507	934.128068422338	1485.994287656528	431.291973318735	988.761562580354	933.295385784556	577.482228129226	966.276045319654	954.024172231014	305.017170264368	1022.683922671262	727.316213835860	560.063545011347	940.384762992953	619.022904804842	625.052863139625	1020.815070332850	558.761701770699	551.802206190138	1008.723126558443	448.980186221129	572.068634209052	1042.736309146686	763.352029043776	334.638219882175	973.165831876325	635.319800066921	274.593795158640	1071.606290978785	571.066189455339	335.157451561885	1083.737826483794	500.601494363270	343.262598698324	1061.019191197531	424.877803551865	335.388064755816	979.010801909216	304.866586798767	284.612424383285	1039.599796895798	197.210338739720	353.821441148829	928.405401517198	384.121264004555	576.344562100632	805.149947980913	348.111795650577	634.731703393093	788.034210223052	239.872719099198	583.167616110495	584.784994657520	175.567692492127	550.373391885312	752.698976373995	123.397455917123	595.116498903380	643.919789879876	119.422264364440	625.377454002031	819.671504865023	30.430538176421	621.452687409546	920.767951856630	38.011400246694	394.986722337090	994.159004135611	35.629442687635	313.261341562428	1075.891288455544	97.899511224087	339.869451060177	1204.882377379093	49.100048729355	310.606668712913	802.905871939237	1085.983424850394	186.259193696777	805.853384447922	825.260700698695	179.452373677347	1058.887842842301	1106.122413163756	731.562395437632	1284.558487331336	1148.586193472661	631.511800253900	
